<mxfile host="www.draw.io" modified="2020-01-18T14:41:56.359Z" agent="Mozilla/5.0 (Windows NT 10.0; Win64; x64) AppleWebKit/537.36 (KHTML, like Gecko) Chrome/79.0.3945.117 Safari/537.36" etag="rDYAtfKVS1ONln5p5ETd" version="12.5.5" type="github">
  <diagram id="3PronI64AzVX0cKYdvCM" name="ページ1">
    <mxGraphModel dx="862" dy="401" grid="1" gridSize="10" guides="1" tooltips="1" connect="1" arrows="1" fold="1" page="1" pageScale="1" pageWidth="690" pageHeight="980" math="0" shadow="0">
      <root>
        <mxCell id="0"/>
        <mxCell id="1" parent="0"/>
        <mxCell id="z6NZwSQl8ovmcM_vJdd9-1" value="" style="rounded=0;whiteSpace=wrap;html=1;fontFamily=Helvetica;fontSize=13;fillColor=#ffcc99;strokeColor=#36393d;opacity=40;" vertex="1" parent="1">
          <mxGeometry x="277.5" y="372" width="150" height="163" as="geometry"/>
        </mxCell>
        <mxCell id="z6NZwSQl8ovmcM_vJdd9-2" value="&lt;font style=&quot;font-size: 11px;&quot;&gt;etc/&lt;/font&gt;" style="rounded=0;whiteSpace=wrap;html=1;fontFamily=Helvetica;fontSize=11;" vertex="1" parent="1">
          <mxGeometry x="337.5" y="435" width="50" height="30" as="geometry"/>
        </mxCell>
        <mxCell id="z6NZwSQl8ovmcM_vJdd9-3" value="" style="shape=trapezoid;perimeter=trapezoidPerimeter;whiteSpace=wrap;html=1;fontFamily=メイリオ;fontSize=11;fillColor=#f5f5f5;strokeColor=#666666;fontColor=#333333;" vertex="1" parent="1">
          <mxGeometry x="337.5" y="425" width="20" height="10" as="geometry"/>
        </mxCell>
        <mxCell id="z6NZwSQl8ovmcM_vJdd9-4" value="コンテナ" style="text;html=1;strokeColor=none;fillColor=none;align=center;verticalAlign=middle;whiteSpace=wrap;rounded=0;fontFamily=Helvetica;fontSize=13;opacity=40;fontColor=#FF3333;" vertex="1" parent="1">
          <mxGeometry x="352.5" y="373" width="75" height="20" as="geometry"/>
        </mxCell>
        <mxCell id="z6NZwSQl8ovmcM_vJdd9-5" value="" style="rounded=0;whiteSpace=wrap;html=1;fontFamily=Helvetica;fontSize=13;fillColor=#cce5ff;strokeColor=#36393d;opacity=40;" vertex="1" parent="1">
          <mxGeometry x="90" y="69" width="170" height="213" as="geometry"/>
        </mxCell>
        <mxCell id="z6NZwSQl8ovmcM_vJdd9-6" value="" style="group;fontSize=11;" vertex="1" connectable="0" parent="1">
          <mxGeometry x="110" y="80" width="60" height="50" as="geometry"/>
        </mxCell>
        <mxCell id="z6NZwSQl8ovmcM_vJdd9-7" value="" style="group;fontSize=11;" vertex="1" connectable="0" parent="z6NZwSQl8ovmcM_vJdd9-6">
          <mxGeometry width="50" height="40" as="geometry"/>
        </mxCell>
        <mxCell id="z6NZwSQl8ovmcM_vJdd9-8" value="/" style="rounded=0;whiteSpace=wrap;html=1;fontFamily=Helvetica;fontSize=11;" vertex="1" parent="z6NZwSQl8ovmcM_vJdd9-7">
          <mxGeometry y="10" width="50" height="30" as="geometry"/>
        </mxCell>
        <mxCell id="z6NZwSQl8ovmcM_vJdd9-9" value="" style="shape=trapezoid;perimeter=trapezoidPerimeter;whiteSpace=wrap;html=1;fontFamily=メイリオ;fontSize=11;fillColor=#f5f5f5;strokeColor=#666666;fontColor=#333333;" vertex="1" parent="z6NZwSQl8ovmcM_vJdd9-7">
          <mxGeometry width="20" height="10" as="geometry"/>
        </mxCell>
        <mxCell id="z6NZwSQl8ovmcM_vJdd9-10" value="" style="endArrow=none;html=1;fontFamily=Helvetica;fontSize=11;entryX=0.25;entryY=1;entryDx=0;entryDy=0;" edge="1" parent="1">
          <mxGeometry width="50" height="50" relative="1" as="geometry">
            <mxPoint x="128" y="265" as="sourcePoint"/>
            <mxPoint x="128" y="120" as="targetPoint"/>
          </mxGeometry>
        </mxCell>
        <mxCell id="z6NZwSQl8ovmcM_vJdd9-11" value="" style="endArrow=none;html=1;fontFamily=Helvetica;fontSize=11;entryX=0;entryY=0.5;entryDx=0;entryDy=0;" edge="1" parent="1">
          <mxGeometry width="50" height="50" relative="1" as="geometry">
            <mxPoint x="128" y="154.4999999999999" as="sourcePoint"/>
            <mxPoint x="152" y="154.5" as="targetPoint"/>
          </mxGeometry>
        </mxCell>
        <mxCell id="z6NZwSQl8ovmcM_vJdd9-12" value="" style="endArrow=none;html=1;fontFamily=Helvetica;fontSize=11;entryX=0;entryY=0.5;entryDx=0;entryDy=0;" edge="1" parent="1">
          <mxGeometry width="50" height="50" relative="1" as="geometry">
            <mxPoint x="175.5" y="309.6600000000001" as="sourcePoint"/>
            <mxPoint x="199.5" y="309.6600000000001" as="targetPoint"/>
          </mxGeometry>
        </mxCell>
        <mxCell id="z6NZwSQl8ovmcM_vJdd9-13" value="" style="endArrow=none;html=1;fontFamily=Helvetica;fontSize=11;entryX=0.5;entryY=1;entryDx=0;entryDy=0;" edge="1" parent="1">
          <mxGeometry width="50" height="50" relative="1" as="geometry">
            <mxPoint x="175" y="310" as="sourcePoint"/>
            <mxPoint x="174.99999999999977" y="280" as="targetPoint"/>
          </mxGeometry>
        </mxCell>
        <mxCell id="z6NZwSQl8ovmcM_vJdd9-14" value="ホストOS" style="text;html=1;strokeColor=none;fillColor=none;align=center;verticalAlign=middle;whiteSpace=wrap;rounded=0;fontFamily=Helvetica;fontSize=13;opacity=40;fontColor=#3333FF;labelBackgroundColor=none;" vertex="1" parent="1">
          <mxGeometry x="185" y="69" width="75" height="20" as="geometry"/>
        </mxCell>
        <mxCell id="z6NZwSQl8ovmcM_vJdd9-15" value="" style="group;fontSize=11;" vertex="1" connectable="0" parent="1">
          <mxGeometry x="153" y="130" width="60" height="50" as="geometry"/>
        </mxCell>
        <mxCell id="z6NZwSQl8ovmcM_vJdd9-16" value="" style="group;fontSize=11;" vertex="1" connectable="0" parent="z6NZwSQl8ovmcM_vJdd9-15">
          <mxGeometry width="50" height="40" as="geometry"/>
        </mxCell>
        <mxCell id="z6NZwSQl8ovmcM_vJdd9-17" value="&lt;font style=&quot;font-size: 11px;&quot;&gt;etc/&lt;/font&gt;" style="rounded=0;whiteSpace=wrap;html=1;fontFamily=Helvetica;fontSize=11;" vertex="1" parent="z6NZwSQl8ovmcM_vJdd9-16">
          <mxGeometry y="10" width="50" height="30" as="geometry"/>
        </mxCell>
        <mxCell id="z6NZwSQl8ovmcM_vJdd9-18" value="" style="shape=trapezoid;perimeter=trapezoidPerimeter;whiteSpace=wrap;html=1;fontFamily=メイリオ;fontSize=11;fillColor=#f5f5f5;strokeColor=#666666;fontColor=#333333;" vertex="1" parent="z6NZwSQl8ovmcM_vJdd9-16">
          <mxGeometry width="20" height="10" as="geometry"/>
        </mxCell>
        <mxCell id="z6NZwSQl8ovmcM_vJdd9-19" value="" style="endArrow=none;html=1;fontFamily=Helvetica;fontSize=11;entryX=0;entryY=0.5;entryDx=0;entryDy=0;" edge="1" parent="1">
          <mxGeometry width="50" height="50" relative="1" as="geometry">
            <mxPoint x="127.99999999999989" y="204.5" as="sourcePoint"/>
            <mxPoint x="152" y="204.5" as="targetPoint"/>
          </mxGeometry>
        </mxCell>
        <mxCell id="z6NZwSQl8ovmcM_vJdd9-20" value="" style="group;fontSize=11;" vertex="1" connectable="0" parent="1">
          <mxGeometry x="153" y="180" width="60" height="60" as="geometry"/>
        </mxCell>
        <mxCell id="z6NZwSQl8ovmcM_vJdd9-21" value="" style="group;fontSize=11;" vertex="1" connectable="0" parent="z6NZwSQl8ovmcM_vJdd9-20">
          <mxGeometry width="50" height="40" as="geometry"/>
        </mxCell>
        <mxCell id="z6NZwSQl8ovmcM_vJdd9-22" value="&lt;font style=&quot;font-size: 11px;&quot;&gt;opt/&lt;/font&gt;" style="rounded=0;whiteSpace=wrap;html=1;fontFamily=Helvetica;fontSize=11;" vertex="1" parent="z6NZwSQl8ovmcM_vJdd9-21">
          <mxGeometry y="10" width="50" height="30" as="geometry"/>
        </mxCell>
        <mxCell id="z6NZwSQl8ovmcM_vJdd9-23" value="" style="shape=trapezoid;perimeter=trapezoidPerimeter;whiteSpace=wrap;html=1;fontFamily=メイリオ;fontSize=11;fillColor=#f5f5f5;strokeColor=#666666;fontColor=#333333;" vertex="1" parent="z6NZwSQl8ovmcM_vJdd9-21">
          <mxGeometry width="20" height="10" as="geometry"/>
        </mxCell>
        <mxCell id="z6NZwSQl8ovmcM_vJdd9-24" value="&lt;font style=&quot;font-size: 11px;&quot;&gt;⋮&lt;/font&gt;" style="text;html=1;strokeColor=none;fillColor=none;align=center;verticalAlign=middle;whiteSpace=wrap;rounded=0;fontFamily=Helvetica;fontSize=11;fontStyle=1" vertex="1" parent="z6NZwSQl8ovmcM_vJdd9-20">
          <mxGeometry x="5.5" y="42" width="37" height="20" as="geometry"/>
        </mxCell>
        <mxCell id="z6NZwSQl8ovmcM_vJdd9-25" value="" style="endArrow=none;html=1;fontFamily=Helvetica;fontSize=11;entryX=0;entryY=0.5;entryDx=0;entryDy=0;" edge="1" parent="1">
          <mxGeometry width="50" height="50" relative="1" as="geometry">
            <mxPoint x="127.99999999999989" y="264.5" as="sourcePoint"/>
            <mxPoint x="152" y="264.5" as="targetPoint"/>
          </mxGeometry>
        </mxCell>
        <mxCell id="z6NZwSQl8ovmcM_vJdd9-26" value="" style="group;fontSize=11;" vertex="1" connectable="0" parent="1">
          <mxGeometry x="153" y="240" width="60" height="60" as="geometry"/>
        </mxCell>
        <mxCell id="z6NZwSQl8ovmcM_vJdd9-27" value="" style="group;fontSize=11;" vertex="1" connectable="0" parent="z6NZwSQl8ovmcM_vJdd9-26">
          <mxGeometry width="50" height="40" as="geometry"/>
        </mxCell>
        <mxCell id="z6NZwSQl8ovmcM_vJdd9-28" value="&lt;font style=&quot;font-size: 11px;&quot;&gt;var/&lt;/font&gt;" style="rounded=0;whiteSpace=wrap;html=1;fontFamily=Helvetica;fontSize=11;" vertex="1" parent="z6NZwSQl8ovmcM_vJdd9-27">
          <mxGeometry y="10" width="50" height="30" as="geometry"/>
        </mxCell>
        <mxCell id="z6NZwSQl8ovmcM_vJdd9-29" value="" style="shape=trapezoid;perimeter=trapezoidPerimeter;whiteSpace=wrap;html=1;fontFamily=メイリオ;fontSize=11;fillColor=#f5f5f5;strokeColor=#666666;fontColor=#333333;" vertex="1" parent="z6NZwSQl8ovmcM_vJdd9-27">
          <mxGeometry width="20" height="10" as="geometry"/>
        </mxCell>
        <mxCell id="z6NZwSQl8ovmcM_vJdd9-30" value="" style="group;fontSize=11;" vertex="1" connectable="0" parent="1">
          <mxGeometry x="200.5" y="285" width="60" height="50" as="geometry"/>
        </mxCell>
        <mxCell id="z6NZwSQl8ovmcM_vJdd9-31" value="" style="group;fontSize=11;" vertex="1" connectable="0" parent="z6NZwSQl8ovmcM_vJdd9-30">
          <mxGeometry width="50" height="40" as="geometry"/>
        </mxCell>
        <mxCell id="z6NZwSQl8ovmcM_vJdd9-32" value="&lt;font style=&quot;font-size: 11px;&quot;&gt;lib/&lt;/font&gt;" style="rounded=0;whiteSpace=wrap;html=1;fontFamily=Helvetica;fontSize=11;" vertex="1" parent="z6NZwSQl8ovmcM_vJdd9-31">
          <mxGeometry y="10" width="50" height="30" as="geometry"/>
        </mxCell>
        <mxCell id="z6NZwSQl8ovmcM_vJdd9-33" value="" style="shape=trapezoid;perimeter=trapezoidPerimeter;whiteSpace=wrap;html=1;fontFamily=メイリオ;fontSize=11;fillColor=#f5f5f5;strokeColor=#666666;fontColor=#333333;" vertex="1" parent="z6NZwSQl8ovmcM_vJdd9-31">
          <mxGeometry width="20" height="10" as="geometry"/>
        </mxCell>
        <mxCell id="z6NZwSQl8ovmcM_vJdd9-34" value="" style="endArrow=none;html=1;fontFamily=Helvetica;fontSize=11;entryX=0.5;entryY=1;entryDx=0;entryDy=0;" edge="1" parent="1">
          <mxGeometry width="50" height="50" relative="1" as="geometry">
            <mxPoint x="221.5" y="355" as="sourcePoint"/>
            <mxPoint x="221.5" y="325" as="targetPoint"/>
          </mxGeometry>
        </mxCell>
        <mxCell id="z6NZwSQl8ovmcM_vJdd9-35" value="" style="endArrow=none;html=1;fontFamily=Helvetica;fontSize=11;entryX=0;entryY=0.5;entryDx=0;entryDy=0;" edge="1" parent="1">
          <mxGeometry width="50" height="50" relative="1" as="geometry">
            <mxPoint x="222" y="354.6600000000001" as="sourcePoint"/>
            <mxPoint x="246" y="354.6600000000001" as="targetPoint"/>
          </mxGeometry>
        </mxCell>
        <mxCell id="z6NZwSQl8ovmcM_vJdd9-36" value="" style="group;fontSize=11;" vertex="1" connectable="0" parent="1">
          <mxGeometry x="247" y="330" width="60" height="50" as="geometry"/>
        </mxCell>
        <mxCell id="z6NZwSQl8ovmcM_vJdd9-37" value="" style="group;fontSize=11;" vertex="1" connectable="0" parent="z6NZwSQl8ovmcM_vJdd9-36">
          <mxGeometry width="50" height="40" as="geometry"/>
        </mxCell>
        <mxCell id="z6NZwSQl8ovmcM_vJdd9-38" value="&lt;font style=&quot;font-size: 11px;&quot;&gt;container/&lt;/font&gt;" style="rounded=0;whiteSpace=wrap;html=1;fontFamily=Helvetica;fontSize=11;" vertex="1" parent="z6NZwSQl8ovmcM_vJdd9-37">
          <mxGeometry y="10" width="50" height="30" as="geometry"/>
        </mxCell>
        <mxCell id="z6NZwSQl8ovmcM_vJdd9-39" value="" style="shape=trapezoid;perimeter=trapezoidPerimeter;whiteSpace=wrap;html=1;fontFamily=メイリオ;fontSize=11;fillColor=#f5f5f5;strokeColor=#666666;fontColor=#333333;" vertex="1" parent="z6NZwSQl8ovmcM_vJdd9-37">
          <mxGeometry width="20" height="10" as="geometry"/>
        </mxCell>
        <mxCell id="z6NZwSQl8ovmcM_vJdd9-40" value="" style="endArrow=none;html=1;fontFamily=Helvetica;fontSize=11;entryX=0;entryY=0.5;entryDx=0;entryDy=0;" edge="1" parent="1">
          <mxGeometry width="50" height="50" relative="1" as="geometry">
            <mxPoint x="267.5" y="399.6600000000001" as="sourcePoint"/>
            <mxPoint x="291.5" y="399.6600000000001" as="targetPoint"/>
          </mxGeometry>
        </mxCell>
        <mxCell id="z6NZwSQl8ovmcM_vJdd9-41" value="" style="group;fontSize=11;" vertex="1" connectable="0" parent="1">
          <mxGeometry x="292.5" y="375" width="60" height="50" as="geometry"/>
        </mxCell>
        <mxCell id="z6NZwSQl8ovmcM_vJdd9-42" value="" style="group;fontSize=11;" vertex="1" connectable="0" parent="z6NZwSQl8ovmcM_vJdd9-41">
          <mxGeometry width="50" height="40" as="geometry"/>
        </mxCell>
        <mxCell id="z6NZwSQl8ovmcM_vJdd9-43" value="&lt;font style=&quot;font-size: 11px;&quot;&gt;test/&lt;/font&gt;" style="rounded=0;whiteSpace=wrap;html=1;fontFamily=Helvetica;fontSize=11;" vertex="1" parent="z6NZwSQl8ovmcM_vJdd9-42">
          <mxGeometry y="10" width="50" height="30" as="geometry"/>
        </mxCell>
        <mxCell id="z6NZwSQl8ovmcM_vJdd9-44" value="" style="shape=trapezoid;perimeter=trapezoidPerimeter;whiteSpace=wrap;html=1;fontFamily=メイリオ;fontSize=11;fillColor=#f5f5f5;strokeColor=#666666;fontColor=#333333;" vertex="1" parent="z6NZwSQl8ovmcM_vJdd9-42">
          <mxGeometry width="20" height="10" as="geometry"/>
        </mxCell>
        <mxCell id="z6NZwSQl8ovmcM_vJdd9-45" value="" style="endArrow=none;html=1;fontFamily=Helvetica;fontSize=11;entryX=0.5;entryY=1;entryDx=0;entryDy=0;" edge="1" parent="1">
          <mxGeometry width="50" height="50" relative="1" as="geometry">
            <mxPoint x="267" y="400" as="sourcePoint"/>
            <mxPoint x="267" y="370" as="targetPoint"/>
          </mxGeometry>
        </mxCell>
        <mxCell id="z6NZwSQl8ovmcM_vJdd9-46" value="" style="endArrow=none;html=1;fontFamily=Helvetica;fontSize=11;entryX=0.25;entryY=1;entryDx=0;entryDy=0;" edge="1" parent="1">
          <mxGeometry width="50" height="50" relative="1" as="geometry">
            <mxPoint x="312" y="500" as="sourcePoint"/>
            <mxPoint x="312.5" y="415" as="targetPoint"/>
          </mxGeometry>
        </mxCell>
        <mxCell id="z6NZwSQl8ovmcM_vJdd9-47" value="" style="endArrow=none;html=1;fontFamily=Helvetica;fontSize=11;entryX=0;entryY=0.5;entryDx=0;entryDy=0;" edge="1" parent="1">
          <mxGeometry width="50" height="50" relative="1" as="geometry">
            <mxPoint x="312.5" y="449.5" as="sourcePoint"/>
            <mxPoint x="336.5" y="449.5" as="targetPoint"/>
          </mxGeometry>
        </mxCell>
        <mxCell id="z6NZwSQl8ovmcM_vJdd9-48" value="" style="endArrow=none;html=1;fontFamily=Helvetica;fontSize=11;entryX=0;entryY=0.5;entryDx=0;entryDy=0;" edge="1" parent="1">
          <mxGeometry width="50" height="50" relative="1" as="geometry">
            <mxPoint x="312.5" y="499.5" as="sourcePoint"/>
            <mxPoint x="336.5" y="499.5" as="targetPoint"/>
          </mxGeometry>
        </mxCell>
        <mxCell id="z6NZwSQl8ovmcM_vJdd9-49" value="" style="group;fontSize=11;" vertex="1" connectable="0" parent="1">
          <mxGeometry x="337.5" y="475" width="60" height="60" as="geometry"/>
        </mxCell>
        <mxCell id="z6NZwSQl8ovmcM_vJdd9-50" value="" style="group;fontSize=11;" vertex="1" connectable="0" parent="z6NZwSQl8ovmcM_vJdd9-49">
          <mxGeometry width="50" height="40" as="geometry"/>
        </mxCell>
        <mxCell id="z6NZwSQl8ovmcM_vJdd9-51" value="&lt;font style=&quot;font-size: 11px;&quot;&gt;lib&lt;/font&gt;" style="rounded=0;whiteSpace=wrap;html=1;fontFamily=Helvetica;fontSize=11;" vertex="1" parent="z6NZwSQl8ovmcM_vJdd9-50">
          <mxGeometry y="10" width="50" height="30" as="geometry"/>
        </mxCell>
        <mxCell id="z6NZwSQl8ovmcM_vJdd9-52" value="" style="shape=trapezoid;perimeter=trapezoidPerimeter;whiteSpace=wrap;html=1;fontFamily=メイリオ;fontSize=11;fillColor=#f5f5f5;strokeColor=#666666;fontColor=#333333;" vertex="1" parent="z6NZwSQl8ovmcM_vJdd9-50">
          <mxGeometry width="20" height="10" as="geometry"/>
        </mxCell>
        <mxCell id="z6NZwSQl8ovmcM_vJdd9-53" value="&lt;font style=&quot;font-size: 11px;&quot;&gt;⋮&lt;/font&gt;" style="text;html=1;strokeColor=none;fillColor=none;align=center;verticalAlign=middle;whiteSpace=wrap;rounded=0;fontFamily=Helvetica;fontSize=11;fontStyle=1" vertex="1" parent="z6NZwSQl8ovmcM_vJdd9-49">
          <mxGeometry x="6.5" y="42" width="37" height="20" as="geometry"/>
        </mxCell>
        <mxCell id="z6NZwSQl8ovmcM_vJdd9-54" value="" style="edgeStyle=segmentEdgeStyle;endArrow=classic;html=1;fontFamily=Helvetica;fontSize=13;fontColor=#3333FF;spacing=2;strokeWidth=2;exitX=0;exitY=0;exitDx=0;exitDy=0;entryX=1.003;entryY=0.568;entryDx=0;entryDy=0;entryPerimeter=0;" edge="1" parent="1" source="z6NZwSQl8ovmcM_vJdd9-4" target="z6NZwSQl8ovmcM_vJdd9-5">
          <mxGeometry width="50" height="50" relative="1" as="geometry">
            <mxPoint x="383" y="360" as="sourcePoint"/>
            <mxPoint x="265.0000000000002" y="227.47058823529414" as="targetPoint"/>
            <Array as="points">
              <mxPoint x="352" y="190"/>
            </Array>
          </mxGeometry>
        </mxCell>
        <mxCell id="z6NZwSQl8ovmcM_vJdd9-55" value="" style="endArrow=none;html=1;strokeWidth=5;fontFamily=Helvetica;fontSize=13;fontColor=#3333FF;strokeColor=#FF3333;" edge="1" parent="1">
          <mxGeometry width="50" height="50" relative="1" as="geometry">
            <mxPoint x="332" y="240" as="sourcePoint"/>
            <mxPoint x="372" y="202" as="targetPoint"/>
          </mxGeometry>
        </mxCell>
        <mxCell id="z6NZwSQl8ovmcM_vJdd9-56" value="" style="endArrow=none;html=1;strokeWidth=5;fontFamily=Helvetica;fontSize=13;fontColor=#3333FF;strokeColor=#FF3333;" edge="1" parent="1">
          <mxGeometry width="50" height="50" relative="1" as="geometry">
            <mxPoint x="332" y="202" as="sourcePoint"/>
            <mxPoint x="372" y="240" as="targetPoint"/>
          </mxGeometry>
        </mxCell>
        <mxCell id="z6NZwSQl8ovmcM_vJdd9-57" value="コンテナから見たときのルートディレクトリは&lt;br&gt;/var/lib/container/test01/となり、それより上の階層にはアクセスできない" style="shape=callout;whiteSpace=wrap;html=1;perimeter=calloutPerimeter;labelBackgroundColor=none;fillColor=#eeeeee;fontFamily=Helvetica;fontSize=13;strokeColor=#36393d;position2=0.47;align=left;" vertex="1" parent="1">
          <mxGeometry x="280" y="264" width="280" height="92" as="geometry"/>
        </mxCell>
      </root>
    </mxGraphModel>
  </diagram>
</mxfile>
